<?xml version="1.0" encoding="UTF-8"?>
<svg version="1.1" xmlns="http://www.w3.org/2000/svg" width="512" height="512">
<path d="M0 0 C5.37800084 3.25449836 9.85698862 8.31354849 11.5 14.4375 C12.88601691 21.36758457 12.81577971 27.52052404 9.1328125 33.75 C5.22300469 39.19649844 5.22300469 39.19649844 1.5 40.4375 C1.83 51.3275 2.16 62.2175 2.5 73.4375 C74.190003 101.63556785 141.74930081 87.16682843 213.6484375 67.2578125 C214.98893177 66.88669652 216.32942656 66.51558243 217.66992188 66.14447021 C218.33883705 65.959277 219.00775223 65.77408379 219.69693756 65.58327866 C303.37533662 42.41883639 303.37533662 42.41883639 336.92578125 42.234375 C337.78730804 42.22731537 338.64883484 42.22025574 339.53646851 42.21298218 C375.21609207 41.98680326 375.21609207 41.98680326 390.5 45.4375 C391.38461914 45.62554199 392.26923828 45.81358398 393.18066406 46.00732422 C412.06757048 50.10764224 429.62259191 57.06116217 446.5 66.4375 C446.5 161.4775 446.5 256.5175 446.5 354.4375 C440.23 351.4675 433.96 348.4975 427.5 345.4375 C423.90996046 343.93447011 420.40158764 342.49337064 416.75 341.1875 C415.85007324 340.86378418 414.95014648 340.54006836 414.02294922 340.20654297 C393.24776484 333.00644022 371.53534271 330.01125745 349.625 330.125 C348.4893158 330.12823273 348.4893158 330.12823273 347.33068848 330.13153076 C302.98995763 330.33216231 260.46904374 342.59471818 218.08251953 354.3762207 C184.44513364 363.7238273 151.15057564 372.73680885 116.5 377.4375 C115.31531128 377.60548096 115.31531128 377.60548096 114.10668945 377.77685547 C105.03013573 378.8851255 95.81670288 378.68148986 86.6875 378.6875 C85.76893219 378.68817474 84.85036438 378.68884949 83.90396118 378.68954468 C70.54741732 378.67394209 57.59198373 378.31722623 44.5 375.4375 C43.6951416 375.27121094 42.8902832 375.10492188 42.06103516 374.93359375 C28.21599506 372.02508504 14.18904949 367.78202474 1.5 361.4375 C1.5 401.6975 1.5 441.9575 1.5 483.4375 C9.09 483.4375 16.68 483.4375 24.5 483.4375 C24.5 492.3475 24.5 501.2575 24.5 510.4375 C0.74 510.4375 -23.02 510.4375 -47.5 510.4375 C-47.5 501.5275 -47.5 492.6175 -47.5 483.4375 C-40.24 483.4375 -32.98 483.4375 -25.5 483.4375 C-25.51347288 426.95959382 -25.55235219 370.48175937 -25.62685562 314.00389864 C-25.6356227 307.34089686 -25.64417824 300.67789482 -25.65258789 294.01489258 C-25.65342894 293.35183622 -25.65426999 292.68877986 -25.65513652 292.00563088 C-25.68229275 270.50577206 -25.69323781 249.00594205 -25.69579524 227.50606741 C-25.69858523 204.79019799 -25.71980652 182.07440861 -25.76052457 159.35857457 C-25.78432644 145.7465732 -25.79330625 132.13472593 -25.78351311 118.52270659 C-25.77821017 109.19695161 -25.79116571 99.87133513 -25.8186629 90.54561958 C-25.83399849 85.15971632 -25.84110786 79.77412286 -25.82659721 74.3882103 C-25.81350029 69.4612827 -25.82323175 64.53495708 -25.85143773 59.60809769 C-25.85757644 57.82202651 -25.8551998 56.03590244 -25.84362926 54.24985818 C-25.82916317 51.82812424 -25.84523662 49.4084661 -25.86914349 46.98685169 C-25.8518474 45.93806023 -25.8518474 45.93806023 -25.8342019 44.86808106 C-25.90900517 41.04420143 -26.37463346 39.58117333 -28.92614728 36.65707177 C-29.77551868 35.92461309 -30.62489008 35.1921544 -31.5 34.4375 C-35.08374898 28.38219999 -35.41834348 22.36922723 -34.5 15.4375 C-32.25490401 8.02660445 -28.20722772 3.24013329 -21.5 -0.5625 C-14.99603778 -2.73048741 -6.31713886 -2.87031164 0 0 Z " fill="#FEFEFE" transform="translate(47.5,1.5625)"/>
<path d="M0 0 C1.53332474 0.00356506 1.53332474 0.00356506 3.09762573 0.00720215 C18.6084493 0.06351871 33.54852421 0.77049642 48.6875 4.4375 C49.36248535 4.59234863 50.0374707 4.74719727 50.73291016 4.90673828 C54.80477701 5.86152815 58.73435086 7.07776077 62.6875 8.4375 C63.3897168 8.67307617 64.09193359 8.90865234 64.81542969 9.15136719 C67.19663305 9.95655135 69.56791129 10.78628208 71.9375 11.625 C72.6392334 11.86774658 73.3409668 12.11049316 74.06396484 12.3605957 C83.04129749 15.65268253 90.99861362 20.09305681 99.6875 24.4375 C99.6875 56.4475 99.6875 88.4575 99.6875 121.4375 C93.4175 118.4675 87.1475 115.4975 80.6875 112.4375 C77.09746046 110.93447011 73.58908764 109.49337064 69.9375 108.1875 C69.03757324 107.86378418 68.13764648 107.54006836 67.21044922 107.20654297 C46.43526484 100.00644022 24.72284271 97.01125745 2.8125 97.125 C2.0553772 97.12715515 1.29825439 97.1293103 0.51818848 97.13153076 C-43.82254237 97.33216231 -86.34345626 109.59471818 -128.72998047 121.3762207 C-162.36736636 130.7238273 -195.66192436 139.73680885 -230.3125 144.4375 C-231.10229248 144.5494873 -231.89208496 144.66147461 -232.70581055 144.77685547 C-241.78236427 145.8851255 -250.99579712 145.68148986 -260.125 145.6875 C-261.04356781 145.68817474 -261.96213562 145.68884949 -262.90853882 145.68954468 C-276.26508268 145.67394209 -289.22051627 145.31722623 -302.3125 142.4375 C-303.1173584 142.27121094 -303.9222168 142.10492188 -304.75146484 141.93359375 C-318.59650494 139.02508504 -332.62345051 134.78202474 -345.3125 128.4375 C-345.3125 96.4275 -345.3125 64.4175 -345.3125 31.4375 C-337.3925 34.4075 -329.4725 37.3775 -321.3125 40.4375 C-288.57946981 50.61127965 -253.96977578 50.34849873 -220.3125 45.4375 C-219.32894531 45.29828125 -218.34539062 45.1590625 -217.33203125 45.015625 C-192.57436813 41.44576169 -168.35436488 35.24324704 -144.34814453 28.3125 C-127.17174953 23.36154297 -109.93012419 18.69326643 -92.60839844 14.27832031 C-89.39644389 13.45891502 -86.18650569 12.63193057 -82.9765625 11.8046875 C-55.46535911 4.76150504 -28.48366299 -0.17551118 0 0 Z " fill="#2E4593" transform="translate(394.3125,234.5625)"/>
<path d="M0 0 C0.86152679 -0.00705963 1.72305359 -0.01411926 2.61068726 -0.02139282 C38.29031082 -0.24757174 38.29031082 -0.24757174 53.57421875 3.203125 C54.45883789 3.39116699 55.34345703 3.57920898 56.25488281 3.77294922 C75.14178923 7.87326724 92.69681066 14.82678717 109.57421875 24.203125 C109.57421875 55.553125 109.57421875 86.903125 109.57421875 119.203125 C105.99022221 117.76952638 102.60475774 116.2471644 99.15673828 114.5378418 C88.62103112 109.3663288 77.7724484 105.6614018 66.57421875 102.203125 C65.548125 101.87441406 64.52203125 101.54570312 63.46484375 101.20703125 C24.48687766 89.52574638 -18.73786184 95.01596301 -57.73046875 103.609375 C-60.26126762 104.16688432 -62.79546071 104.70385044 -65.33203125 105.234375 C-74.11231863 107.09477117 -82.74794896 109.32519609 -91.37890625 111.78125 C-98.51847744 113.80867908 -105.69432336 115.70351686 -112.86523438 117.61645508 C-120.7440148 119.72649249 -128.58747195 121.9478138 -136.42578125 124.203125 C-162.91280598 131.81987002 -189.38435633 138.00112853 -216.70800781 141.8125 C-218.97353373 142.13812356 -221.22563496 142.49949224 -223.48046875 142.890625 C-260.63685492 148.74458518 -301.78476972 143.02363076 -335.42578125 126.203125 C-335.42578125 94.853125 -335.42578125 63.503125 -335.42578125 31.203125 C-330.14578125 33.183125 -324.86578125 35.163125 -319.42578125 37.203125 C-316.19691432 38.29477798 -312.99953704 39.35558847 -309.73828125 40.328125 C-308.50779053 40.69587036 -308.50779053 40.69587036 -307.25244141 41.07104492 C-245.80343949 58.81974907 -182.93300723 41.54221101 -123.27734375 25.0234375 C-121.93684948 24.65232152 -120.59635469 24.28120743 -119.25585938 23.91009521 C-118.25248661 23.63230539 -118.25248661 23.63230539 -117.22884369 23.34890366 C-33.55044463 0.18446139 -33.55044463 0.18446139 0 0 Z " fill="#2E4593" transform="translate(384.42578125,43.796875)"/>
<path d="M0 0 C5.37800084 3.25449836 9.85698862 8.31354849 11.5 14.4375 C12.88601691 21.36758457 12.81577971 27.52052404 9.1328125 33.75 C5.22300469 39.19649844 5.22300469 39.19649844 1.5 40.4375 C1.5 186.6275 1.5 332.8175 1.5 483.4375 C9.09 483.4375 16.68 483.4375 24.5 483.4375 C24.5 492.3475 24.5 501.2575 24.5 510.4375 C0.74 510.4375 -23.02 510.4375 -47.5 510.4375 C-47.5 501.5275 -47.5 492.6175 -47.5 483.4375 C-40.24 483.4375 -32.98 483.4375 -25.5 483.4375 C-25.51347288 426.95959382 -25.55235219 370.48175937 -25.62685562 314.00389864 C-25.6356227 307.34089686 -25.64417824 300.67789482 -25.65258789 294.01489258 C-25.65342894 293.35183622 -25.65426999 292.68877986 -25.65513652 292.00563088 C-25.68229275 270.50577206 -25.69323781 249.00594205 -25.69579524 227.50606741 C-25.69858523 204.79019799 -25.71980652 182.07440861 -25.76052457 159.35857457 C-25.78432644 145.7465732 -25.79330625 132.13472593 -25.78351311 118.52270659 C-25.77821017 109.19695161 -25.79116571 99.87133513 -25.8186629 90.54561958 C-25.83399849 85.15971632 -25.84110786 79.77412286 -25.82659721 74.3882103 C-25.81350029 69.4612827 -25.82323175 64.53495708 -25.85143773 59.60809769 C-25.85757644 57.82202651 -25.8551998 56.03590244 -25.84362926 54.24985818 C-25.82916317 51.82812424 -25.84523662 49.4084661 -25.86914349 46.98685169 C-25.8518474 45.93806023 -25.8518474 45.93806023 -25.8342019 44.86808106 C-25.90900517 41.04420143 -26.37463346 39.58117333 -28.92614728 36.65707177 C-29.77551868 35.92461309 -30.62489008 35.1921544 -31.5 34.4375 C-35.08374898 28.38219999 -35.41834348 22.36922723 -34.5 15.4375 C-32.25490401 8.02660445 -28.20722772 3.24013329 -21.5 -0.5625 C-14.99603778 -2.73048741 -6.31713886 -2.87031164 0 0 Z " fill="#FEE92E" transform="translate(47.5,1.5625)"/>
<path d="M0 0 C23.76 0 47.52 0 72 0 C72 8.91 72 17.82 72 27 C48.24 27 24.48 27 0 27 C0 18.09 0 9.18 0 0 Z " fill="#FFD02E" transform="translate(0,485)"/>
<path d="M0 0 C5.37800084 3.25449836 9.85698862 8.31354849 11.5 14.4375 C13.06010895 22.23804477 12.48055252 28.89442503 8.0625 35.6875 C3.64369709 41.06317264 -2.2934164 43.58048219 -9.01171875 44.94921875 C-16.31163688 45.47819832 -22.6043629 42.56792423 -28.5 38.4375 C-33.74995225 32.50617097 -34.92977565 26.40494613 -34.8359375 18.64453125 C-34.20184664 12.59117543 -31.90350046 7.73345083 -27.4921875 3.51953125 C-19.82986533 -2.4321987 -9.09998071 -4.13474852 0 0 Z " fill="#FFD12D" transform="translate(47.5,1.5625)"/>
<path d="M0 0 C2.46278801 2.46278801 2.99771255 4.70676982 4 8 C7.3 7.67 10.6 7.34 14 7 C9.25 12.875 9.25 12.875 7 14 C7.66 17.3 8.32 20.6 9 24 C8.2575 23.690625 7.515 23.38125 6.75 23.0625 C5.8425 22.711875 4.935 22.36125 4 22 C3.360625 21.7421875 2.72125 21.484375 2.0625 21.21875 C-0.12029984 20.75116821 -0.12029984 20.75116821 -1.921875 22.43359375 C-2.82679688 23.42552734 -2.82679688 23.42552734 -3.75 24.4375 C-4.36359375 25.09621094 -4.9771875 25.75492188 -5.609375 26.43359375 C-6.29773438 27.20896484 -6.29773438 27.20896484 -7 28 C-8.31625194 25.36749612 -7.74813658 24.19820944 -7.0625 21.375 C-6.86785156 20.55773437 -6.67320312 19.74046875 -6.47265625 18.8984375 C-6.31667969 18.27195313 -6.16070312 17.64546875 -6 17 C-8.31 16.01 -10.62 15.02 -13 14 C-10.53750158 12.67403931 -8.73909018 11.95740248 -5.9375 11.5 C-2.84195252 10.30666767 -2.84195252 10.30666767 -1.94921875 7.6484375 C-1.19524199 5.1113593 -0.54466748 2.5895594 0 0 Z " fill="#3C519A" transform="translate(324,154)"/>
<path d="M0 0 C2.46278801 2.46278801 2.99771255 4.70676982 4 8 C7.3 7.67 10.6 7.34 14 7 C11.66666667 9.33333333 9.33333333 11.66666667 7 14 C7.27802838 16.39388923 7.27802838 16.39388923 8 19 C8.33333333 20.66666667 8.66666667 22.33333333 9 24 C6.03 23.01 3.06 22.02 0 21 C-2.31 23.31 -4.62 25.62 -7 28 C-8.31625194 25.36749612 -7.74813658 24.19820944 -7.0625 21.375 C-6.86785156 20.55773437 -6.67320312 19.74046875 -6.47265625 18.8984375 C-6.31667969 18.27195312 -6.16070312 17.64546875 -6 17 C-7.98 16.01 -9.96 15.02 -12 14 C-12 13.34 -12 12.68 -12 12 C-9.03 11.34 -6.06 10.68 -3 10 C-2.01 6.7 -1.02 3.4 0 0 Z " fill="#3B519A" transform="translate(211,240)"/>
<path d="M0 0 C2.46278801 2.46278801 2.99771255 4.70676982 4 8 C6.97 8 9.94 8 13 8 C11.38405168 10.04119788 9.7143618 12.04072937 8 14 C7.34 14 6.68 14 6 14 C6.99 17.3 7.98 20.6 9 24 C8.0925 23.67 7.185 23.34 6.25 23 C2.92954193 21.80394277 2.92954193 21.80394277 -1 22 C-2.9792785 23.2832557 -2.9792785 23.2832557 -4.75 25 C-5.8225 25.99 -6.895 26.98 -8 28 C-7.34 24.37 -6.68 20.74 -6 17 C-8.31 16.01 -10.62 15.02 -13 14 C-10.53750158 12.67403931 -8.73909018 11.95740248 -5.9375 11.5 C-2.84195252 10.30666767 -2.84195252 10.30666767 -1.94921875 7.6484375 C-1.19524199 5.1113593 -0.54466748 2.5895594 0 0 Z " fill="#3B519A" transform="translate(324,210)"/>
<path d="M0 0 C2.46278801 2.46278801 2.99771255 4.70676982 4 8 C6.64 8 9.28 8 12 8 C11.154375 8.886875 10.30875 9.77375 9.4375 10.6875 C7.25031778 13.2365442 7.25031778 13.2365442 7.125 16.5625 C7.41375 17.366875 7.7025 18.17125 8 19 C8.33333333 20.66666667 8.66666667 22.33333333 9 24 C6.03 23.01 3.06 22.02 0 21 C-2.31 23.31 -4.62 25.62 -7 28 C-8.31625194 25.36749612 -7.74813658 24.19820944 -7.0625 21.375 C-6.86785156 20.55773437 -6.67320312 19.74046875 -6.47265625 18.8984375 C-6.31667969 18.27195313 -6.16070312 17.64546875 -6 17 C-7.98 16.01 -9.96 15.02 -12 14 C-11.67 13.34 -11.34 12.68 -11 12 C-9.081875 11.7525 -9.081875 11.7525 -7.125 11.5 C-4.91321678 11.13795572 -4.91321678 11.13795572 -3 10 C-1.36666785 6.78671257 -0.6263329 3.53617116 0 0 Z " fill="#394E98" transform="translate(211,184)"/>
<path d="M0 0 C2.46278801 2.46278801 2.99771255 4.70676982 4 8 C8.455 7.505 8.455 7.505 13 7 C11.989375 8.051875 10.97875 9.10375 9.9375 10.1875 C7.40860507 12.98587851 7.40860507 12.98587851 7.0625 16.625 C7.371875 17.40875 7.68125 18.1925 8 19 C8.33333333 20.66666667 8.66666667 22.33333333 9 24 C6.03 23.01 3.06 22.02 0 21 C-2.31 23.64 -4.62 26.28 -7 29 C-8.40907283 26.18185434 -7.50872691 24.82722796 -6.5625 21.875 C-6.27503906 20.96492188 -5.98757813 20.05484375 -5.69140625 19.1171875 C-5.46324219 18.41851562 -5.23507812 17.71984375 -5 17 C-7.64 16.34 -10.28 15.68 -13 15 C-12.67 14.34 -12.34 13.68 -12 13 C-8.70580475 12.08776132 -5.36984798 11.59718825 -2 11 C-1.34 7.37 -0.68 3.74 0 0 Z " fill="#384E98" transform="translate(269,196)"/>
</svg>
