<?xml version="1.0" standalone="no"?>
<!DOCTYPE svg PUBLIC "-//W3C//DTD SVG 20010904//EN"
 "http://www.w3.org/TR/2001/REC-SVG-20010904/DTD/svg10.dtd">
<svg version="1.0" xmlns="http://www.w3.org/2000/svg"
 width="512.000000pt" height="512.000000pt" viewBox="0 0 512.000000 512.000000"
 preserveAspectRatio="xMidYMid meet">

<g transform="translate(0.000000,512.000000) scale(0.100000,-0.100000)"
fill="#000000" stroke="none">
<path d="M3386 5084 c-320 -71 -583 -301 -688 -604 -50 -143 -50 -151 -55
-774 -3 -324 -2 -609 2 -633 13 -88 81 -108 176 -50 30 18 64 39 76 47 12 8
24 12 25 10 2 -3 21 -32 43 -65 48 -75 142 -170 218 -220 l57 -38 0 -183 0
-184 -263 0 c-289 0 -329 -6 -437 -60 l-60 -30 -2 826 -3 826 -28 24 -28 24
-337 0 -337 0 -120 121 c-66 66 -130 125 -143 130 -37 14 -77 -10 -216 -135
l-129 -116 -115 0 -115 0 -88 85 -88 85 -331 0 -331 0 -24 -25 -25 -24 0
-1054 0 -1054 23 -21 23 -22 567 0 567 0 0 -85 0 -84 -82 -3 -83 -3 -3 -43 -3
-42 -252 2 -252 3 -3 43 -3 42 -79 0 -79 0 -3 -42 -3 -43 -148 -5 c-141 -5
-150 -6 -168 -29 -18 -22 -19 -50 -19 -776 0 -726 1 -754 19 -776 l19 -24 699
-3 c384 -1 708 0 721 3 12 3 31 14 42 25 20 20 20 36 20 690 0 369 3 670 8
670 4 0 25 -5 47 -11 22 -7 76 -14 120 -18 l80 -6 3 -100 c2 -55 -11 -282 -28
-505 -18 -223 -30 -441 -28 -485 6 -140 77 -249 202 -310 69 -34 186 -45 271
-26 71 16 166 79 209 138 19 26 81 158 137 293 56 135 105 251 109 258 4 9 22
-19 49 -75 23 -48 53 -102 67 -120 23 -31 24 -35 26 -268 l3 -237 1060 0 c583
0 1079 1 1103 1 l42 1 0 948 c0 630 -4 968 -11 1008 -25 138 -133 286 -258
353 -98 52 -158 61 -423 61 l-238 0 0 184 0 184 63 45 c85 61 186 170 238 257
l42 71 23 -74 c72 -226 280 -391 512 -405 76 -4 85 -3 107 18 l25 23 0 697 c0
762 1 752 -60 875 -76 154 -220 269 -396 314 l-62 16 -61 92 c-127 190 -317
326 -546 390 -86 24 -490 29 -589 7z m512 -170 c42 -9 94 -23 114 -32 l37 -17
-53 -130 -52 -130 -100 -6 c-54 -4 -121 -12 -147 -18 -182 -43 -352 -168 -450
-333 -60 -100 -87 -202 -97 -359 -5 -75 -16 -165 -25 -200 -39 -151 -116 -283
-229 -394 l-71 -70 -3 510 c-3 594 -2 607 80 775 44 91 62 115 142 195 116
116 242 184 397 214 79 16 372 13 457 -5z m448 -277 c99 -132 149 -271 161
-449 l6 -98 -34 0 c-92 0 -257 149 -333 299 -25 51 -46 101 -46 112 0 10 23
77 52 148 l51 130 48 -40 c27 -22 69 -68 95 -102z m-373 -292 c41 -86 85 -152
139 -211 l38 -42 -107 -4 c-133 -5 -191 -28 -258 -99 -25 -26 -45 -53 -45 -59
0 -6 -29 -10 -73 -10 l-73 0 -32 45 c-37 53 -111 103 -165 112 -44 7 -44 9 6
92 64 107 206 212 323 240 22 5 78 9 125 10 l87 1 35 -75z m753 15 c56 -31
125 -104 154 -160 50 -97 50 -103 50 -757 0 -511 -2 -613 -14 -613 -36 0 -158
74 -201 122 -88 98 -115 178 -115 348 l0 115 55 24 c71 30 146 111 174 186 52
138 3 314 -109 393 l-38 27 -5 150 c-3 83 -8 160 -12 173 -9 29 0 28 61 -8z
m-3036 -545 l235 -235 -500 0 c-475 0 -498 1 -482 17 35 35 502 452 507 452 3
1 111 -105 240 -234z m-965 114 c84 -85 96 -92 162 -99 l52 -5 -137 -122 -137
-122 -237 -1 -238 0 0 210 0 210 233 0 233 0 69 -71z m2697 -62 c40 -51 30
-140 -21 -176 -14 -11 -44 -23 -65 -27 -39 -7 -39 -7 -32 22 3 16 9 70 12 119
3 50 7 96 10 103 5 17 73 -11 96 -41z m822 42 c102 -28 128 -161 43 -221 -27
-20 -47 -23 -140 -27 -150 -5 -193 3 -234 44 -29 29 -33 40 -33 83 0 60 32
106 83 121 45 13 234 13 281 0z m357 -22 c39 -25 79 -97 79 -141 0 -73 -64
-147 -139 -162 l-31 -6 0 166 0 166 29 0 c15 0 43 -10 62 -23z m-2301 -182 l0
-125 -63 0 -62 0 -125 125 -125 125 188 0 187 0 0 -125z m1410 28 c0 -33 47
-118 86 -155 72 -68 119 -82 291 -86 115 -3 165 0 204 11 l52 16 -7 -81 c-19
-230 -160 -440 -365 -546 -111 -56 -205 -76 -344 -70 -128 6 -230 37 -333 103
-79 50 -173 149 -212 223 l-32 59 21 19 c32 28 103 131 139 202 l33 62 57 0
c149 0 275 90 311 222 9 37 11 38 54 38 36 0 45 -3 45 -17z m-1410 -800 c0
-455 -1 -475 -18 -460 -35 32 -106 57 -163 57 -106 0 -212 -81 -240 -183 -14
-51 -6 -134 15 -176 l17 -31 -116 0 c-126 0 -184 14 -296 71 -99 50 -206 33
-259 -41 l-21 -30 -515 0 -514 0 0 635 0 635 1055 0 1055 0 0 -477z m1182
-269 c83 -22 269 -22 361 0 38 9 70 16 73 16 2 0 4 -92 4 -204 0 -237 3 -246
83 -255 l45 -6 -102 -290 -102 -290 -181 -3 -180 -2 -102 287 c-55 159 -101
291 -101 296 0 4 16 7 36 7 26 0 43 8 65 29 l29 29 0 201 c0 111 2 201 4 201
2 0 33 -7 68 -16z m-1314 -321 c12 -10 46 -81 76 -158 l56 -139 0 -208 0 -208
-302 0 c-171 0 -323 5 -348 11 -25 5 -91 32 -147 59 -130 62 -133 66 -133 235
0 98 3 127 14 131 8 3 45 -10 83 -30 116 -58 164 -66 405 -66 210 0 215 1 235
23 40 43 38 61 -18 177 -48 100 -51 111 -40 138 21 49 81 67 119 35z m132
-968 l0 -85 -165 0 -165 0 0 85 0 85 165 0 165 0 0 -85z m1478 73 c-3 -7 -29
-82 -58 -166 -30 -83 -57 -149 -61 -145 -7 9 -109 300 -109 314 0 5 52 9 116
9 89 0 115 -3 112 -12z m-2408 -753 l0 -425 -590 0 -590 0 0 425 0 425 590 0
590 0 0 -425z"/>
<path d="M3413 3365 c15 -107 104 -193 219 -210 113 -17 239 64 272 176 25 82
27 79 -70 79 l-85 0 -11 -31 c-12 -35 -56 -59 -94 -51 -26 5 -64 46 -64 68 0
11 -20 14 -86 14 l-87 0 6 -45z"/>
<path d="M350 3155 l0 -85 90 0 90 0 0 85 0 85 -90 0 -90 0 0 -85z"/>
<path d="M352 2603 l3 -298 85 0 85 0 3 298 2 297 -90 0 -90 0 2 -297z"/>
<path d="M350 865 l0 -85 90 0 90 0 0 85 0 85 -90 0 -90 0 0 -85z"/>
<path d="M690 865 l0 -85 90 0 90 0 0 85 0 85 -90 0 -90 0 0 -85z"/>
<path d="M1030 865 l0 -85 90 0 91 0 -3 83 -3 82 -87 3 -88 3 0 -86z"/>
<path d="M350 525 l0 -85 90 0 90 0 0 85 0 85 -90 0 -90 0 0 -85z"/>
<path d="M690 525 l0 -85 90 0 90 0 0 85 0 85 -90 0 -90 0 0 -85z"/>
<path d="M1030 525 l0 -85 90 0 90 0 0 85 0 85 -90 0 -90 0 0 -85z"/>
</g>
</svg>
